<?xml version="1.0" encoding="UTF-8" standalone="no"?>
<svg
   xmlns:dc="http://purl.org/dc/elements/1.1/"
   xmlns:cc="http://creativecommons.org/ns#"
   xmlns:rdf="http://www.w3.org/1999/02/22-rdf-syntax-ns#"
   xmlns:svg="http://www.w3.org/2000/svg"
   xmlns="http://www.w3.org/2000/svg"
   xmlns:sodipodi="http://sodipodi.sourceforge.net/DTD/sodipodi-0.dtd"
   xmlns:inkscape="http://www.inkscape.org/namespaces/inkscape"
   version="1.1"
   id="svg2"
   xml:space="preserve"
   width="2829.3333"
   height="2829.3333"
   viewBox="0 0 2829.3333 2829.3333"
   sodipodi:docname="2274_R1NUIENBUiAyMzQzLTE3.eps"><metadata
     id="metadata8"><rdf:RDF><cc:Work
         rdf:about=""><dc:format>image/svg+xml</dc:format><dc:type
           rdf:resource="http://purl.org/dc/dcmitype/StillImage" /></cc:Work></rdf:RDF></metadata><defs
     id="defs6" /><sodipodi:namedview
     pagecolor="#ffffff"
     bordercolor="#666666"
     borderopacity="1"
     objecttolerance="10"
     gridtolerance="10"
     guidetolerance="10"
     inkscape:pageopacity="0"
     inkscape:pageshadow="2"
     inkscape:window-width="640"
     inkscape:window-height="480"
     id="namedview4" /><g
     id="g10"
     inkscape:groupmode="layer"
     inkscape:label="ink_ext_XXXXXX"
     transform="matrix(1.3333333,0,0,-1.3333333,0,2829.3333)"><g
       id="g12"
       transform="scale(0.1)"><path
         d="m 16953.7,10613.4 c 0,-3505.4 -2841.7,-6347.1 -6347.1,-6347.1 -3505.39,0 -6347.07,2841.7 -6347.07,6347.1 0,3505.4 2841.68,6347.1 6347.07,6347.1 3505.4,0 6347.1,-2841.7 6347.1,-6347.1"
         style="fill:#e3512e;fill-opacity:1;fill-rule:nonzero;stroke:none"
         id="path14" /><path
         d="m 8492.11,10972.8 c 0,0 -541.41,116 -742.62,679.4"
         style="fill:none;stroke:#ffffff;stroke-width:249.45;stroke-linecap:round;stroke-linejoin:round;stroke-miterlimit:10;stroke-dasharray:none;stroke-opacity:1"
         id="path16" /><path
         d="m 8090.51,10310.4 c 0,0 -728.79,-136.7 -1152.15,563.4"
         style="fill:none;stroke:#ffffff;stroke-width:249.45;stroke-linecap:round;stroke-linejoin:round;stroke-miterlimit:10;stroke-dasharray:none;stroke-opacity:1"
         id="path18" /><path
         d="m 7712.58,9501.5 c 0,0 -662.7,-332.4 -1262.85,223.5"
         style="fill:none;stroke:#ffffff;stroke-width:249.45;stroke-linecap:round;stroke-linejoin:round;stroke-miterlimit:10;stroke-dasharray:none;stroke-opacity:1"
         id="path20" /><path
         d="m 12545,11163.9 c 0,0 541.4,116 742.6,679.4"
         style="fill:none;stroke:#ffffff;stroke-width:249.45;stroke-linecap:round;stroke-linejoin:round;stroke-miterlimit:10;stroke-dasharray:none;stroke-opacity:1"
         id="path22" /><path
         d="m 12946.5,10501.6 c 0,0 728.8,-136.7 1152.2,563.4"
         style="fill:none;stroke:#ffffff;stroke-width:249.45;stroke-linecap:round;stroke-linejoin:round;stroke-miterlimit:10;stroke-dasharray:none;stroke-opacity:1"
         id="path24" /><path
         d="m 13324.5,9692.7 c 0,0 662.6,-332.5 1262.8,223.4"
         style="fill:none;stroke:#ffffff;stroke-width:249.45;stroke-linecap:round;stroke-linejoin:round;stroke-miterlimit:10;stroke-dasharray:none;stroke-opacity:1"
         id="path26" /><path
         d="m 12941.5,8430.5 c 0,-1256 -1018.1,-2274.3 -2274.2,-2274.3 -1255.85,0 -2274.14,1018.3 -2274.14,2274.3 0,1255.9 1018.29,2274.1 2274.14,2274.1 1256.1,0 2274.2,-1018.2 2274.2,-2274.1"
         style="fill:#ffffff;fill-opacity:1;fill-rule:nonzero;stroke:none"
         id="path28" /><path
         d="m 12941.5,8430.5 c 0,-1256 -1018.1,-2274.3 -2274.2,-2274.3 -1255.85,0 -2274.14,1018.3 -2274.14,2274.3 0,1255.9 1018.29,2274.1 2274.14,2274.1 1256.1,0 2274.2,-1018.2 2274.2,-2274.1 z"
         style="fill:none;stroke:#e3512e;stroke-width:249.45;stroke-linecap:butt;stroke-linejoin:miter;stroke-miterlimit:10;stroke-dasharray:none;stroke-opacity:1"
         id="path30" /><path
         d="m 12232.6,12283.9 c 0,-864.5 -700.8,-1565.2 -1565.3,-1565.2 -864.45,0 -1565.31,700.7 -1565.31,1565.2 0,864.5 700.86,1565.3 1565.31,1565.3 864.5,0 1565.3,-700.8 1565.3,-1565.3"
         style="fill:#ffffff;fill-opacity:1;fill-rule:nonzero;stroke:none"
         id="path32" /><path
         d="m 12232.6,12283.9 c 0,-864.5 -700.8,-1565.2 -1565.3,-1565.2 -864.45,0 -1565.31,700.7 -1565.31,1565.2 0,864.5 700.86,1565.3 1565.31,1565.3 864.5,0 1565.3,-700.8 1565.3,-1565.3 z"
         style="fill:none;stroke:#e3512e;stroke-width:249.45;stroke-linecap:butt;stroke-linejoin:miter;stroke-miterlimit:10;stroke-dasharray:none;stroke-opacity:1"
         id="path34" /><path
         d="m 12036.5,11926 c 0,0 80.5,-4624.9 -5275.33,-4955.2 0,0 -303.98,6487.6 5275.33,4955.2"
         style="fill:#ffffff;fill-opacity:1;fill-rule:nonzero;stroke:none"
         id="path36" /><path
         d="m 12036.5,11926 c 0,0 80.5,-4624.9 -5275.33,-4955.2 0,0 -303.98,6487.6 5275.33,4955.2 z"
         style="fill:none;stroke:#e3512e;stroke-width:249.45;stroke-linecap:butt;stroke-linejoin:miter;stroke-miterlimit:10;stroke-dasharray:none;stroke-opacity:1"
         id="path38" /><path
         d="m 9546.52,12005 c 0,0 -309.61,-4589.8 5004.88,-5330.6 0,0 675.8,6429.7 -5004.88,5330.6"
         style="fill:#ffffff;fill-opacity:1;fill-rule:nonzero;stroke:none"
         id="path40" /><path
         d="m 9546.52,12005 c 0,0 -309.61,-4589.8 5004.88,-5330.6 0,0 675.8,6429.7 -5004.88,5330.6 z"
         style="fill:none;stroke:#e3512e;stroke-width:249.45;stroke-linecap:butt;stroke-linejoin:miter;stroke-miterlimit:10;stroke-dasharray:none;stroke-opacity:1"
         id="path42" /><path
         d="m 10128,13582.5 c 0,0 -13.9,1193.2 -1073.86,1488"
         style="fill:none;stroke:#ffffff;stroke-width:249.45;stroke-linecap:round;stroke-linejoin:round;stroke-miterlimit:10;stroke-dasharray:none;stroke-opacity:1"
         id="path44" /><path
         d="m 11162.3,13582.5 c 0,0 14.2,1193.2 1074,1488"
         style="fill:none;stroke:#ffffff;stroke-width:249.45;stroke-linecap:round;stroke-linejoin:round;stroke-miterlimit:10;stroke-dasharray:none;stroke-opacity:1"
         id="path46" /><path
         d="m 9158.75,10905.3 c 0,-153.2 -124.18,-277.3 -277.27,-277.3 -153.08,0 -277.26,124.1 -277.26,277.3 0,153.1 124.18,277.3 277.26,277.3 153.09,0 277.27,-124.2 277.27,-277.3"
         style="fill:#e3512e;fill-opacity:1;fill-rule:nonzero;stroke:none"
         id="path48" /><path
         d="m 11090.6,10117.4 c 0,-153.2 -124.2,-277.3 -277.2,-277.3 -153.1,0 -277.4,124.1 -277.4,277.3 0,153.1 124.3,277.2 277.4,277.2 153,0 277.2,-124.1 277.2,-277.2"
         style="fill:#e3512e;fill-opacity:1;fill-rule:nonzero;stroke:none"
         id="path50" /><path
         d="m 9282.34,9680.1 c 0,-153.1 -124.21,-277.2 -277.22,-277.2 -153.17,0 -277.39,124.1 -277.39,277.2 0,153.2 124.22,277.4 277.39,277.4 153.01,0 277.22,-124.2 277.22,-277.4"
         style="fill:#e3512e;fill-opacity:1;fill-rule:nonzero;stroke:none"
         id="path52" /><path
         d="m 9713.32,8545.7 c 0,-153.2 -124.18,-277.3 -277.19,-277.3 -153.16,0 -277.38,124.1 -277.38,277.3 0,153.1 124.22,277.3 277.38,277.3 153.01,0 277.19,-124.2 277.19,-277.3"
         style="fill:#e3512e;fill-opacity:1;fill-rule:nonzero;stroke:none"
         id="path54" /><path
         d="m 8144.57,8629.9 c 0,-153.1 -124.22,-277.2 -277.23,-277.2 -153.12,0 -277.34,124.1 -277.34,277.2 0,153.2 124.22,277.3 277.34,277.3 153.01,0 277.23,-124.1 277.23,-277.3"
         style="fill:#e3512e;fill-opacity:1;fill-rule:nonzero;stroke:none"
         id="path56" /><path
         d="m 12036.7,10905.3 c 0,-153.2 124.2,-277.3 277.2,-277.3 153.1,0 277.4,124.1 277.4,277.3 0,153.1 -124.3,277.3 -277.4,277.3 -153,0 -277.2,-124.2 -277.2,-277.3"
         style="fill:#e3512e;fill-opacity:1;fill-rule:nonzero;stroke:none"
         id="path58" /><path
         d="m 10764.3,11273.2 c 0,-153.2 124.1,-277.3 277.3,-277.3 152.9,0 277.2,124.1 277.2,277.3 0,153.1 -124.3,277.2 -277.2,277.2 -153.2,0 -277.3,-124.1 -277.3,-277.2"
         style="fill:#e3512e;fill-opacity:1;fill-rule:nonzero;stroke:none"
         id="path60" /><path
         d="m 12059.7,9631.6 c 0,-153.1 124.2,-277.2 277.4,-277.2 153,0 277.2,124.1 277.2,277.2 0,153.2 -124.2,277.3 -277.2,277.3 -153.2,0 -277.4,-124.1 -277.4,-277.3"
         style="fill:#e3512e;fill-opacity:1;fill-rule:nonzero;stroke:none"
         id="path62" /><path
         d="m 11863.3,8430.4 c 0,-153.1 124.2,-277.2 277.4,-277.2 153,0 277.2,124.1 277.2,277.2 0,153.2 -124.2,277.3 -277.2,277.3 -153.2,0 -277.4,-124.1 -277.4,-277.3"
         style="fill:#e3512e;fill-opacity:1;fill-rule:nonzero;stroke:none"
         id="path64" /><path
         d="m 13375.8,8472 c 0,-153.1 124.2,-277.2 277.2,-277.2 153.2,0 277.3,124.1 277.3,277.2 0,153.2 -124.1,277.3 -277.3,277.3 -153,0 -277.2,-124.1 -277.2,-277.3"
         style="fill:#e3512e;fill-opacity:1;fill-rule:nonzero;stroke:none"
         id="path66" /></g></g></svg>
